<?xml version="1.0" encoding="UTF-8"?>
<!DOCTYPE svg PUBLIC "-//W3C//DTD SVG 1.1//EN" "http://www.w3.org/Graphics/SVG/1.1/DTD/svg11.dtd">
<svg xmlns="http://www.w3.org/2000/svg" version="1.1" width="512px" height="512px" style="shape-rendering:geometricPrecision; text-rendering:geometricPrecision; image-rendering:optimizeQuality; fill-rule:evenodd; clip-rule:evenodd" xmlns:xlink="http://www.w3.org/1999/xlink">
<g><path style="opacity:0.99" fill="#03a8dd" d="M 199.5,49.5 C 221.351,48.6553 235.184,58.6553 241,79.5C 241.667,191.5 241.667,303.5 241,415.5C 235.912,438.523 222.079,453.356 199.5,460C 172.013,464.505 151.513,454.672 138,430.5C 134.556,422.18 132.556,413.513 132,404.5C 115.231,404.452 101.231,398.118 90,385.5C 81.7628,372.189 80.4295,358.189 86,343.5C 88.4379,339.623 90.6045,335.623 92.5,331.5C 92.4712,329.971 91.8045,328.804 90.5,328C 67.8616,314.419 61.3616,295.253 71,270.5C 73.7477,265.748 77.2477,261.581 81.5,258C 82.5,257.333 83.5,257.333 84.5,258C 92.6363,266.072 102.303,271.572 113.5,274.5C 118.65,272.436 119.317,269.603 115.5,266C 93.3675,259.534 79.8675,245.034 75,222.5C 72.1649,188.311 87.3315,167.144 120.5,159C 135.396,157.012 149.063,160.178 161.5,168.5C 165.149,167.461 166.316,165.128 165,161.5C 153.844,153.503 141.344,149.169 127.5,148.5C 117.588,128.141 120.588,109.975 136.5,94C 151.403,84.3004 167.069,82.967 183.5,90C 187.639,92.6391 191.639,95.4724 195.5,98.5C 199.149,97.4612 200.316,95.1279 199,91.5C 189.129,82.0339 177.296,76.7005 163.5,75.5C 171.365,60.9187 183.365,52.252 199.5,49.5 Z M 213.5,131.5 C 217.007,130.994 220.174,131.66 223,133.5C 223.667,134.833 223.667,136.167 223,137.5C 217.001,139.508 211.168,142.008 205.5,145C 200.757,149.246 197.423,154.413 195.5,160.5C 191.751,163.418 189.085,162.585 187.5,158C 191.697,144.638 200.364,135.804 213.5,131.5 Z M 198.5,226.5 C 201.874,226.674 205.207,227.174 208.5,228C 212.701,231.905 212.035,234.738 206.5,236.5C 196.808,234.261 189.641,237.594 185,246.5C 183.392,249.382 182.059,252.382 181,255.5C 178.577,257.994 176.244,257.994 174,255.5C 171.504,242.015 163.338,235.515 149.5,236C 145.123,231.63 146.123,228.797 152.5,227.5C 163.073,228.12 171.739,232.453 178.5,240.5C 183.542,233.329 190.208,228.662 198.5,226.5 Z M 200.5,290.5 C 213.42,293.419 221.42,301.419 224.5,314.5C 223.514,318.147 221.181,319.314 217.5,318C 215.78,314.659 214.28,311.159 213,307.5C 208.878,303.11 204.211,299.443 199,296.5C 198.252,294.16 198.752,292.16 200.5,290.5 Z M 154.5,318.5 C 157.044,318.104 159.211,318.771 161,320.5C 165.201,337.361 176.035,346.194 193.5,347C 197.3,350.945 196.467,353.778 191,355.5C 185.68,354.712 180.513,353.378 175.5,351.5C 168.38,356.722 160.38,359.722 151.5,360.5C 146.894,360.28 142.561,359.113 138.5,357C 136.006,354.756 136.006,352.423 138.5,350C 144.404,351.122 150.404,351.455 156.5,351C 160.209,350.312 163.543,348.812 166.5,346.5C 159.265,340.034 154.598,332.034 152.5,322.5C 153.18,321.14 153.847,319.807 154.5,318.5 Z M 202.5,394.5 C 207.913,394.229 213.246,394.729 218.5,396C 221.265,398.966 220.932,401.633 217.5,404C 208.726,402.368 200.392,403.701 192.5,408C 188.556,411.401 184.722,414.901 181,418.5C 176.614,417.004 175.614,414.337 178,410.5C 184.523,402.446 192.69,397.113 202.5,394.5 Z"/></g>
<g><path style="opacity:0.979" fill="#03a8dd" d="M 348.5,65.5 C 364.446,66.9487 371.279,75.6154 369,91.5C 364.062,102.924 355.562,107.091 343.5,104C 331.939,98.6434 328.105,89.81 332,77.5C 335.513,70.6697 341.013,66.6697 348.5,65.5 Z"/></g>
<g><path style="opacity:0.949" fill="#4d81c2" d="M 305.5,80.5 C 311.206,80.1712 316.872,80.5046 322.5,81.5C 321.167,84.1667 321.167,86.8333 322.5,89.5C 318.541,90.3265 314.541,90.8265 310.5,91C 307.898,91.8834 305.731,93.3834 304,95.5C 299.493,113.365 295.493,131.365 292,149.5C 290.222,157.575 285.389,162.742 277.5,165C 268.506,165.5 259.506,165.666 250.5,165.5C 250.5,162.167 250.5,158.833 250.5,155.5C 257.508,155.666 264.508,155.5 271.5,155C 274.973,154.681 277.806,153.181 280,150.5C 284.458,131.212 288.791,111.878 293,92.5C 295.744,86.9206 299.911,82.9206 305.5,80.5 Z"/></g>
<g><path style="opacity:0.976" fill="#03a8dd" d="M 385.5,138.5 C 402.829,140.16 409.662,149.493 406,166.5C 398.743,178.022 388.91,180.856 376.5,175C 367.682,166.736 366.182,157.236 372,146.5C 375.601,142.123 380.101,139.457 385.5,138.5 Z"/></g>
<g><path style="opacity:0.945" fill="#4d81c2" d="M 328.5,153.5 C 338.833,153.5 349.167,153.5 359.5,153.5C 359.5,157.167 359.5,160.833 359.5,164.5C 349.062,164.049 338.729,164.549 328.5,166C 323.535,179.894 318.368,193.727 313,207.5C 310.736,210.433 307.902,212.6 304.5,214C 286.503,214.5 268.503,214.667 250.5,214.5C 250.5,211.167 250.5,207.833 250.5,204.5C 266.837,204.667 283.17,204.5 299.5,204C 300.833,203.333 302.167,202.667 303.5,202C 308.525,188.593 313.359,175.093 318,161.5C 320.855,157.789 324.355,155.123 328.5,153.5 Z"/></g>
<g><path style="opacity:0.969" fill="#03a8dd" d="M 421.5,235.5 C 435.414,235.085 443.08,241.752 444.5,255.5C 441.52,272.002 431.854,277.835 415.5,273C 405.678,266.499 402.844,257.666 407,246.5C 410.321,240.66 415.154,236.993 421.5,235.5 Z"/></g>
<g><path style="opacity:0.973" fill="#4d80c2" d="M 250.5,250.5 C 299.167,250.5 347.833,250.5 396.5,250.5C 396.5,253.833 396.5,257.167 396.5,260.5C 347.833,260.5 299.167,260.5 250.5,260.5C 250.5,257.167 250.5,253.833 250.5,250.5 Z"/></g>
<g><path style="opacity:0.933" fill="#4d81c2" d="M 250.5,295.5 C 268.889,295.053 287.222,295.553 305.5,297C 308.843,298.922 311.677,301.422 314,304.5C 318.247,318.245 323.081,331.745 328.5,345C 338.729,346.451 349.062,346.951 359.5,346.5C 359.5,350.167 359.5,353.833 359.5,357.5C 349.161,357.666 338.828,357.5 328.5,357C 323.475,355.311 319.641,352.144 317,347.5C 313,335.5 309,323.5 305,311.5C 304.167,309.333 302.667,307.833 300.5,307C 283.837,306.5 267.17,306.333 250.5,306.5C 250.5,302.833 250.5,299.167 250.5,295.5 Z"/></g>
<g><path style="opacity:0.97" fill="#03a8dd" d="M 383.5,332.5 C 399.989,332.155 407.822,340.155 407,356.5C 400.761,371.582 390.261,375.416 375.5,368C 368.003,360.263 366.503,351.43 371,341.5C 374.299,337.118 378.466,334.118 383.5,332.5 Z"/></g>
<g><path style="opacity:0.94" fill="#4d81c2" d="M 250.5,345.5 C 259.506,345.334 268.506,345.5 277.5,346C 285.389,348.258 290.222,353.425 292,361.5C 295.494,379.64 299.494,397.64 304,415.5C 305.214,417.049 306.714,418.215 308.5,419C 313.155,419.499 317.821,419.666 322.5,419.5C 321.382,422.855 321.382,426.188 322.5,429.5C 307.979,433.736 297.812,429.069 292,415.5C 288.379,397.061 284.379,378.727 280,360.5C 278.048,358.106 275.548,356.606 272.5,356C 265.174,355.5 257.841,355.334 250.5,355.5C 250.5,352.167 250.5,348.833 250.5,345.5 Z"/></g>
<g><path style="opacity:0.969" fill="#03a8dd" d="M 345.5,405.5 C 363.008,405.505 370.841,414.172 369,431.5C 364.244,442.129 356.078,446.295 344.5,444C 330.854,437.397 327.354,427.231 334,413.5C 337.15,409.689 340.983,407.023 345.5,405.5 Z"/></g>
</svg>
